<svg xmlns="http://www.w3.org/2000/svg" xmlns:xlink="http://www.w3.org/1999/xlink" width="70" height="70" version="1.1" viewBox="0 0 70 70"><title>Chart / img_Circle Series</title><desc>Created with Sketch.</desc><defs><linearGradient id="linearGradient-1" x1="72.958%" x2="-17.126%" y1="0%" y2="116.999%"><stop offset="0%" stop-color="#0BD1C3"/><stop offset="100%" stop-color="#0653C7"/></linearGradient><linearGradient id="linearGradient-2" x1="68.972%" x2="-5.472%" y1="0%" y2="116.999%"><stop offset="0%" stop-color="#0BD1C3"/><stop offset="100%" stop-color="#0653C7"/></linearGradient></defs><g id="Chart-/-img_Circle-Series" fill="none" fill-rule="evenodd" stroke="none" stroke-width="1"><g id="Circle-Series" fill-rule="nonzero" transform="translate(2.000000, 2.000000)"><path id="Combined-Shape" fill="url(#linearGradient-1)" d="M39.2972973,-1.27897692e-13 L41.3231813,0.0262211517 C55.0038938,0.203291529 66,11.5731999 66,25.5241307 C66,25.9554122 65.9894863,26.3855044 65.9685221,26.8141397 L65.8754825,28.7164383 L39.2972973,28.7164383 L39.2972973,-1.27897692e-13 Z M43.2972973,24.7164383 L61.9854532,24.7164383 C61.5990033,14.0053583 53.5582552,5.2940964 43.2972973,4.15125906 L43.2972973,24.7164383 Z M35,33.0241307 L62,33.0241307 L62,35.0241307 C62,52.1449579 48.1208272,66.0241307 31,66.0241307 C13.8791728,66.0241307 7.10542736e-15,52.1449579 7.10542736e-15,35.0241307 C7.10542736e-15,17.9033034 13.8791728,4.02413066 31,4.02413066 C31.7149973,4.02413066 32.4272441,4.04836996 33.1359144,4.09664082 L35,4.22361242 L35,33.0241307 Z M4,35.0241307 C4,49.9358189 16.0883118,62.0241307 31,62.0241307 C45.2389922,62.0241307 56.9035984,51.0018738 57.9270481,37.0241307 L31,37.0241307 L31,8.02413066 C16.0883118,8.02413066 4,20.1124424 4,35.0241307 Z"/><path id="Combined-Shape-path" fill="url(#linearGradient-2)" d="M43.2972973,24.7164383 L61.9854532,24.7164383 C61.5990033,14.0053583 53.5582552,5.2940964 43.2972973,4.15125906 L43.2972973,24.7164383 Z" opacity=".34"/></g></g></svg>