<svg xmlns="http://www.w3.org/2000/svg" xmlns:xlink="http://www.w3.org/1999/xlink" width="70" height="70" version="1.1" viewBox="0 0 70 70"><title>Legend</title><desc>Created with Sketch.</desc><defs><linearGradient id="linearGradient-1" x1="72.975%" x2="-17.175%" y1="34.487%" y2="70.787%"><stop offset="0%" stop-color="#0BD1C3"/><stop offset="100%" stop-color="#0653C7"/></linearGradient><linearGradient id="linearGradient-2" x1="72.975%" x2="-17.175%" y1="27.49%" y2="80.163%"><stop offset="0%" stop-color="#0BD1C3"/><stop offset="100%" stop-color="#0653C7"/></linearGradient><linearGradient id="linearGradient-3" x1="72.975%" x2="-17.175%" y1="22.565%" y2="86.762%"><stop offset="0%" stop-color="#0BD1C3"/><stop offset="100%" stop-color="#0653C7"/></linearGradient><linearGradient id="linearGradient-4" x1="72.975%" x2="-17.175%" y1="0%" y2="116.999%"><stop offset="0%" stop-color="#0BD1C3"/><stop offset="100%" stop-color="#0653C7"/></linearGradient><linearGradient id="linearGradient-5" x1="72.975%" x2="-17.175%" y1="44.435%" y2="57.457%"><stop offset="0%" stop-color="#0BD1C3"/><stop offset="100%" stop-color="#0653C7"/></linearGradient></defs><g id="Legend" fill="none" fill-rule="evenodd" stroke="none" stroke-width="1"><g id="Group" transform="translate(8.656854, 6.656854)"><polyline id="Path-2" fill="url(#linearGradient-1)" points="4 25.082 15.078 17.682 27 31.081 45.932 12.643 45.932 36 4 36" opacity=".34"/><path id="Path-2" fill="url(#linearGradient-2)" d="M14.6921951,18.1323316 L25.930679,31.2033679 C26.5079292,32.0313493 27.72171,32.0643872 28.3431458,31.2690328 L45.7080106,13.0129672 L45.7080106,38 C45.7080106,38.8284271 46.3795835,39.5 47.2080106,39.5 C48.0364377,39.5 48.7080106,38.8284271 48.7080106,38 L48.7080106,8.65685425 C48.7080106,7.2302898 46.9043341,6.60920518 46.026021,7.73332806 L27.2298638,27.8212559 L16.308966,15.2057508 C15.8405577,14.5338872 14.9198183,14.3619568 14.2405136,14.8195069 L1.16202479,23.6286093 C0.474924507,24.0914102 0.293093951,25.0235893 0.755894879,25.7106896 C1.21869581,26.3977899 2.15087492,26.5796204 2.83797521,26.1168195 L14.6921951,18.1323316 Z"/><path id="Combined-Shape-Copy" fill="url(#linearGradient-3)" d="M4,36 L52,36 C53.1045695,36 54,36.8954305 54,38 C54,39.1045695 53.1045695,40 52,40 L2,40 C1.44771525,40 0.94771525,39.7761424 0.585786438,39.4142136 C0.223857625,39.0522847 6.76353751e-17,38.5522847 0,38 L0,2 C-1.3527075e-16,0.8954305 0.8954305,2.02906125e-16 2,0 C3.1045695,-2.02906125e-16 4,0.8954305 4,2 L4,36 Z"/><polygon id="Rectangle-Copy" fill="url(#linearGradient-4)" points="47 34 55 34 47 42" transform="translate(51.000000, 38.000000) rotate(-225.000000) translate(-51.000000, -38.000000)"/><path id="Combined-Shape" fill="url(#linearGradient-5)" d="M3.84314575,51.3431458 C1.91014913,51.3431458 0.343145751,49.7761424 0.343145751,47.8431458 C0.343145751,45.9101491 1.91014913,44.3431458 3.84314575,44.3431458 C5.77614237,44.3431458 7.34314575,45.9101491 7.34314575,47.8431458 C7.34314575,49.7761424 5.77614237,51.3431458 3.84314575,51.3431458 Z M3.84314575,49.3431458 C4.67157288,49.3431458 5.34314575,48.6715729 5.34314575,47.8431458 C5.34314575,47.0147186 4.67157288,46.3431458 3.84314575,46.3431458 C3.01471863,46.3431458 2.34314575,47.0147186 2.34314575,47.8431458 C2.34314575,48.6715729 3.01471863,49.3431458 3.84314575,49.3431458 Z M3.84314575,60.3431458 C1.91014913,60.3431458 0.343145751,58.7761424 0.343145751,56.8431458 C0.343145751,54.9101491 1.91014913,53.3431458 3.84314575,53.3431458 C5.77614237,53.3431458 7.34314575,54.9101491 7.34314575,56.8431458 C7.34314575,58.7761424 5.77614237,60.3431458 3.84314575,60.3431458 Z M3.84314575,58.3431458 C4.67157288,58.3431458 5.34314575,57.6715729 5.34314575,56.8431458 C5.34314575,56.0147186 4.67157288,55.3431458 3.84314575,55.3431458 C3.01471863,55.3431458 2.34314575,56.0147186 2.34314575,56.8431458 C2.34314575,57.6715729 3.01471863,58.3431458 3.84314575,58.3431458 Z M29.8431458,51.3431458 C27.9101491,51.3431458 26.3431458,49.7761424 26.3431458,47.8431458 C26.3431458,45.9101491 27.9101491,44.3431458 29.8431458,44.3431458 C31.7761424,44.3431458 33.3431458,45.9101491 33.3431458,47.8431458 C33.3431458,49.7761424 31.7761424,51.3431458 29.8431458,51.3431458 Z M29.8431458,49.3431458 C30.6715729,49.3431458 31.3431458,48.6715729 31.3431458,47.8431458 C31.3431458,47.0147186 30.6715729,46.3431458 29.8431458,46.3431458 C29.0147186,46.3431458 28.3431458,47.0147186 28.3431458,47.8431458 C28.3431458,48.6715729 29.0147186,49.3431458 29.8431458,49.3431458 Z M29.8431458,60.3431458 C27.9101491,60.3431458 26.3431458,58.7761424 26.3431458,56.8431458 C26.3431458,54.9101491 27.9101491,53.3431458 29.8431458,53.3431458 C31.7761424,53.3431458 33.3431458,54.9101491 33.3431458,56.8431458 C33.3431458,58.7761424 31.7761424,60.3431458 29.8431458,60.3431458 Z M29.8431458,58.3431458 C30.6715729,58.3431458 31.3431458,57.6715729 31.3431458,56.8431458 C31.3431458,56.0147186 30.6715729,55.3431458 29.8431458,55.3431458 C29.0147186,55.3431458 28.3431458,56.0147186 28.3431458,56.8431458 C28.3431458,57.6715729 29.0147186,58.3431458 29.8431458,58.3431458 Z M11.044198,48.8431458 L11.044198,46.8431458 L22.300901,46.8431458 L22.300901,48.8431458 L11.044198,48.8431458 Z M11.044198,57.8431458 L11.044198,55.8431458 L22.300901,55.8431458 L22.300901,57.8431458 L11.044198,57.8431458 Z M37.044198,48.8431458 L37.044198,46.8431458 L48.300901,46.8431458 L48.300901,48.8431458 L37.044198,48.8431458 Z M37.044198,57.8431458 L37.044198,55.8431458 L48.300901,55.8431458 L48.300901,57.8431458 L37.044198,57.8431458 Z"/></g><polygon id="Rectangle" fill="url(#linearGradient-4)" points="6.657 5.657 14.657 5.657 6.657 13.657" transform="translate(10.656854, 9.656854) rotate(-315.000000) translate(-10.656854, -9.656854)"/></g></svg>