<svg xmlns="http://www.w3.org/2000/svg" xmlns:xlink="http://www.w3.org/1999/xlink" width="70" height="70" version="1.1" viewBox="0 0 70 70"><title>Live Update</title><desc>Created with Sketch.</desc><defs><linearGradient id="linearGradient-1" x1="72.975%" x2="-17.175%" y1="0%" y2="116.999%"><stop offset="0%" stop-color="#0BD1C3"/><stop offset="100%" stop-color="#0653C7"/></linearGradient></defs><g id="Live-Update" fill="none" fill-rule="evenodd" stroke="none" stroke-width="1"><path id="Combined-Shape" fill="url(#linearGradient-1)" d="M57.6568542,61.6568542 L8.65685425,61.6568542 C8.1045695,61.6568542 7.6045695,61.4329966 7.24264069,61.0710678 C6.88071187,60.709139 6.65685425,60.209139 6.65685425,59.6568542 L6.65685425,10.6568542 L3,10.6568542 L8.65685425,5 L14.3137085,10.6568542 L10.6568542,10.6568542 L10.6568542,57.6568542 L57.6568542,57.6568542 L57.6568542,54 L63.3137085,59.6568542 L57.6568542,65.3137085 L57.6568542,61.6568542 Z"/><polyline id="Path-5" stroke="#0997C5" stroke-linecap="round" stroke-linejoin="round" stroke-width="3" points="14.314 51.378 22.611 38.192 32.381 44.859 41.649 29.543 49.335 35.605 63.314 11"/><polyline id="Path-6" stroke="#0997C5" stroke-linecap="round" stroke-linejoin="round" stroke-width="3" points="55 11 65 11 65 21" transform="translate(60.000000, 16.000000) rotate(-9.000000) translate(-60.000000, -16.000000)"/></g></svg>